<mxfile host="65bd71144e">
    <diagram name="Page-1" id="8NoAi405iV9w-lXr4pfd">
        <mxGraphModel dx="1306" dy="926" grid="1" gridSize="10" guides="1" tooltips="1" connect="1" arrows="1" fold="1" page="1" pageScale="1" pageWidth="850" pageHeight="1100" background="none" math="0" shadow="0">
            <root>
                <mxCell id="0"/>
                <mxCell id="1" parent="0"/>
                <mxCell id="44" value="" style="ellipse;whiteSpace=wrap;html=1;fontSize=10;fillColor=#4D4D4D;fontColor=#ffffff;strokeColor=#1A7633;movable=1;resizable=1;rotatable=1;deletable=1;editable=1;connectable=1;" parent="1" vertex="1">
                    <mxGeometry x="16.03" y="50" width="723.97" height="400" as="geometry"/>
                </mxCell>
                <mxCell id="43" style="edgeStyle=none;html=1;startArrow=classic;startFill=1;entryX=0.471;entryY=1.012;entryDx=0;entryDy=0;entryPerimeter=0;fontSize=11;strokeColor=#000000;exitX=0.497;exitY=-0.029;exitDx=0;exitDy=0;exitPerimeter=0;" parent="1" source="94" target="32" edge="1">
                    <mxGeometry relative="1" as="geometry">
                        <mxPoint x="943.2577073170731" y="244.24342080000002" as="sourcePoint"/>
                        <mxPoint x="1148.8840162601625" y="169.1527199999999" as="targetPoint"/>
                    </mxGeometry>
                </mxCell>
                <mxCell id="90" value="Асинхронный&#10;Streaming&#10;Replication" style="edgeLabel;align=center;verticalAlign=middle;resizable=0;points=[];fontSize=9;spacing=2;rotation=0;labelBorderColor=none;" parent="43" vertex="1" connectable="0">
                    <mxGeometry relative="1" as="geometry">
                        <mxPoint as="offset"/>
                    </mxGeometry>
                </mxCell>
                <mxCell id="36" value="" style="edgeStyle=none;exitX=1.002;exitY=0.947;exitDx=0;exitDy=0;startArrow=classic;startFill=1;exitPerimeter=0;entryX=-0.027;entryY=0.094;entryDx=0;entryDy=0;entryPerimeter=0;strokeColor=#000000;html=1;" parent="1" source="20" target="32" edge="1">
                    <mxGeometry relative="1" as="geometry">
                        <mxPoint x="539.8861788617886" y="188.4736" as="sourcePoint"/>
                        <mxPoint x="611.4849105691055" y="243.90528000000006" as="targetPoint"/>
                    </mxGeometry>
                </mxCell>
                <mxCell id="80" value="SQL" style="edgeLabel;html=1;align=center;verticalAlign=middle;resizable=0;points=[];fontSize=7;" parent="36" vertex="1" connectable="0">
                    <mxGeometry relative="1" as="geometry">
                        <mxPoint as="offset"/>
                    </mxGeometry>
                </mxCell>
                <mxCell id="50" value="" style="verticalLabelPosition=bottom;html=1;verticalAlign=top;align=center;strokeColor=none;fillColor=#00BEF2;shape=mxgraph.azure.vhd;pointerEvents=1;" parent="1" vertex="1">
                    <mxGeometry x="660.0037398373985" y="217.77239999999998" width="37.5609756097561" height="48" as="geometry"/>
                </mxCell>
                <mxCell id="51" style="edgeStyle=none;html=1;exitX=1.031;exitY=0.527;exitDx=0;exitDy=0;startArrow=classic;startFill=1;exitPerimeter=0;entryX=-0.069;entryY=0.719;entryDx=0;entryDy=0;entryPerimeter=0;strokeColor=#000000;" parent="1" source="94" target="50" edge="1">
                    <mxGeometry relative="1" as="geometry">
                        <mxPoint x="996.2168048780486" y="244.31296319999996" as="sourcePoint"/>
                        <mxPoint x="991.766455284553" y="251.63335999999998" as="targetPoint"/>
                    </mxGeometry>
                </mxCell>
                <mxCell id="9" value="" style="aspect=fixed;perimeter=ellipsePerimeter;html=1;align=center;shadow=0;dashed=0;spacingTop=3;image;image=img/lib/active_directory/internet_globe.svg;" parent="1" vertex="1">
                    <mxGeometry x="144.96747967479672" y="238.64" width="37.70991304347826" height="37.70991304347826" as="geometry"/>
                </mxCell>
                <mxCell id="11" value="" style="edgeStyle=none;startArrow=classic;startFill=1;entryX=0;entryY=0.5;entryDx=0;entryDy=0;strokeColor=#000000;" parent="1" source="97" target="9" edge="1">
                    <mxGeometry relative="1" as="geometry">
                        <mxPoint x="181.80487804878044" y="294.2080000000002" as="targetPoint"/>
                        <mxPoint x="55.06730436977887" y="265.11999999999983" as="sourcePoint"/>
                    </mxGeometry>
                </mxCell>
                <mxCell id="72" value="HTTP" style="edgeLabel;align=center;verticalAlign=middle;resizable=0;points=[];fontSize=7;" parent="11" vertex="1" connectable="0">
                    <mxGeometry x="0.058" relative="1" as="geometry">
                        <mxPoint x="-1" as="offset"/>
                    </mxGeometry>
                </mxCell>
                <mxCell id="31" style="edgeStyle=none;html=1;entryX=0.009;entryY=0.735;entryDx=0;entryDy=0;entryPerimeter=0;startArrow=classic;startFill=1;strokeColor=#000000;" parent="1" source="9" target="173" edge="1">
                    <mxGeometry relative="1" as="geometry">
                        <mxPoint x="226.34357999999997" y="257.7904100000002" as="targetPoint"/>
                    </mxGeometry>
                </mxCell>
                <mxCell id="75" value="HTTP" style="edgeLabel;html=1;align=center;verticalAlign=middle;resizable=0;points=[];fontSize=7;" parent="31" vertex="1" connectable="0">
                    <mxGeometry x="0.212" relative="1" as="geometry">
                        <mxPoint x="-5" y="-1" as="offset"/>
                    </mxGeometry>
                </mxCell>
                <mxCell id="30" style="edgeStyle=none;html=1;exitX=0.867;exitY=0.005;exitDx=0;exitDy=0;entryX=-0.032;entryY=0.732;entryDx=0;entryDy=0;entryPerimeter=0;startArrow=classic;startFill=1;exitPerimeter=0;strokeColor=#000000;" parent="1" source="174" target="20" edge="1">
                    <mxGeometry relative="1" as="geometry">
                        <mxPoint x="276.5088599999999" y="230.16911000000005" as="sourcePoint"/>
                        <mxPoint x="545.520325203252" y="217.17823999999993" as="targetPoint"/>
                    </mxGeometry>
                </mxCell>
                <mxCell id="77" value="HTTP" style="edgeLabel;align=center;verticalAlign=middle;resizable=0;points=[];fontSize=7;" parent="30" vertex="1" connectable="0">
                    <mxGeometry relative="1" as="geometry">
                        <mxPoint x="15" y="-17" as="offset"/>
                    </mxGeometry>
                </mxCell>
                <mxCell id="94" value="" style="aspect=fixed;html=1;points=[];align=center;image;fontSize=12;image=img/lib/azure2/databases/Azure_Database_PostgreSQL_Server.svg;" parent="1" vertex="1">
                    <mxGeometry x="553.9113008130079" y="291.0400000000001" width="46.08858434782609" height="61.45537391304347" as="geometry"/>
                </mxCell>
                <mxCell id="95" value="&lt;font color=&quot;#ffffff&quot; style=&quot;font-size: 10px;&quot;&gt;VM-6 - Standby PostgreSQL&lt;br&gt;read&lt;br&gt;&lt;/font&gt;" style="text;strokeColor=none;align=center;fillColor=none;html=1;verticalAlign=middle;whiteSpace=wrap;rounded=0;fontSize=10;" parent="1" vertex="1">
                    <mxGeometry x="540" y="362.49" width="80" height="37.51" as="geometry"/>
                </mxCell>
                <mxCell id="96" value="&lt;font color=&quot;#ffffff&quot; style=&quot;font-size: 10px;&quot;&gt;HDD-1 - PostgreSQL_dump&lt;/font&gt;" style="text;strokeColor=none;align=center;fillColor=none;html=1;verticalAlign=middle;whiteSpace=wrap;rounded=0;fontSize=10;" parent="1" vertex="1">
                    <mxGeometry x="639.1843089430895" y="271.6208" width="79.1910569105691" height="22.2592" as="geometry"/>
                </mxCell>
                <mxCell id="97" value="&lt;font color=&quot;#ffffff&quot; style=&quot;font-size: 10px;&quot;&gt;devices&lt;/font&gt;" style="sketch=0;outlineConnect=0;dashed=0;verticalLabelPosition=bottom;verticalAlign=top;align=center;html=1;fontSize=7;fontStyle=0;shape=mxgraph.aws4.illustration_devices;pointerEvents=1;aspect=fixed;fillColor=#3333FF;strokeColor=#3700CC;fontColor=#ffffff;" parent="1" vertex="1">
                    <mxGeometry x="25.3" y="230" width="75.06" height="52.54" as="geometry"/>
                </mxCell>
                <mxCell id="20" value="" style="sketch=0;html=1;aspect=fixed;strokeColor=none;shadow=0;align=center;verticalAlign=top;fillColor=#3B8DF1;shape=mxgraph.gcp2.cloud_server" parent="1" vertex="1">
                    <mxGeometry x="391.58" y="163.54000000000002" width="48.93" height="43.54" as="geometry"/>
                </mxCell>
                <mxCell id="18" value="&lt;font style=&quot;font-size: 10px;&quot; color=&quot;#ffffff&quot;&gt;VM-1 - Nginx proxy, &lt;br&gt;Zabbix, Terraform,&lt;br&gt;Ansible,&amp;nbsp;&lt;/font&gt;&lt;font color=&quot;#ffffff&quot;&gt;Keepalived, &lt;br&gt;ZooKeeper, HAProxy&lt;/font&gt;" style="text;strokeColor=none;align=center;fillColor=none;html=1;verticalAlign=middle;whiteSpace=wrap;rounded=0;fontSize=10;glass=0;shadow=0;strokeWidth=1;" parent="1" vertex="1">
                    <mxGeometry x="213.97" y="110.77000000000001" width="101" height="47.23" as="geometry"/>
                </mxCell>
                <mxCell id="155" value="" style="sketch=0;html=1;aspect=fixed;strokeColor=none;shadow=0;align=center;verticalAlign=top;fillColor=#3B8DF1;shape=mxgraph.gcp2.cloud_server" parent="1" vertex="1">
                    <mxGeometry x="391.58000000000004" y="220.00000000000003" width="48.93" height="43.54" as="geometry"/>
                </mxCell>
                <mxCell id="157" style="edgeStyle=none;html=1;exitX=0.99;exitY=0.489;exitDx=0;exitDy=0;entryX=0.057;entryY=0.494;entryDx=0;entryDy=0;entryPerimeter=0;startArrow=classic;startFill=1;exitPerimeter=0;strokeColor=#000000;" parent="1" source="174" target="155" edge="1">
                    <mxGeometry relative="1" as="geometry">
                        <mxPoint x="284.0463199999999" y="252.88621999999998" as="sourcePoint"/>
                        <mxPoint x="298.2385200000001" y="224.28354000000002" as="targetPoint"/>
                    </mxGeometry>
                </mxCell>
                <mxCell id="158" value="HTTP" style="edgeLabel;align=center;verticalAlign=middle;resizable=0;points=[];fontSize=7;" parent="157" vertex="1" connectable="0">
                    <mxGeometry relative="1" as="geometry">
                        <mxPoint as="offset"/>
                    </mxGeometry>
                </mxCell>
                <mxCell id="159" value="" style="sketch=0;html=1;aspect=fixed;strokeColor=none;shadow=0;align=center;verticalAlign=top;fillColor=#3B8DF1;shape=mxgraph.gcp2.cloud_server" parent="1" vertex="1">
                    <mxGeometry x="391.58" y="300" width="48.93" height="43.54" as="geometry"/>
                </mxCell>
                <mxCell id="160" value="&lt;p style=&quot;line-height: 120%; font-size: 10px;&quot;&gt;&lt;font color=&quot;#ffffff&quot; style=&quot;font-size: 10px;&quot;&gt;VM-4 - server MediaWiki-3&lt;/font&gt;&lt;/p&gt;" style="text;strokeColor=none;align=center;fillColor=none;html=1;verticalAlign=middle;whiteSpace=wrap;rounded=0;fontSize=10;" parent="1" vertex="1">
                    <mxGeometry x="380.79" y="350" width="70.5" height="20" as="geometry"/>
                </mxCell>
                <mxCell id="161" style="edgeStyle=none;html=1;exitX=0.99;exitY=0.726;exitDx=0;exitDy=0;entryX=0.13;entryY=0.171;entryDx=0;entryDy=0;entryPerimeter=0;startArrow=classic;startFill=1;exitPerimeter=0;strokeColor=#000000;" parent="1" source="174" target="159" edge="1">
                    <mxGeometry relative="1" as="geometry">
                        <mxPoint x="287.6567" y="271.43195000000003" as="sourcePoint"/>
                        <mxPoint x="308.7890100000001" y="269.78876" as="targetPoint"/>
                    </mxGeometry>
                </mxCell>
                <mxCell id="162" value="HTTP" style="edgeLabel;align=center;verticalAlign=middle;resizable=0;points=[];fontSize=7;" parent="161" vertex="1" connectable="0">
                    <mxGeometry relative="1" as="geometry">
                        <mxPoint as="offset"/>
                    </mxGeometry>
                </mxCell>
                <mxCell id="32" value="" style="aspect=fixed;html=1;points=[];align=center;image;fontSize=12;image=img/lib/azure2/databases/Azure_Database_PostgreSQL_Server.svg;" parent="1" vertex="1">
                    <mxGeometry x="553.9139837398374" y="138.00439999999995" width="46.08858434782609" height="61.45537391304347" as="geometry"/>
                </mxCell>
                <mxCell id="165" value="" style="edgeStyle=none;exitX=0.934;exitY=0.414;exitDx=0;exitDy=0;startArrow=classic;startFill=1;exitPerimeter=0;entryX=-0.017;entryY=0.404;entryDx=0;entryDy=0;entryPerimeter=0;strokeColor=#000000;html=1;" parent="1" source="155" target="32" edge="1">
                    <mxGeometry relative="1" as="geometry">
                        <mxPoint x="349.0278599999999" y="221.93238000000008" as="sourcePoint"/>
                        <mxPoint x="412.18833807722854" y="235.17716869565209" as="targetPoint"/>
                    </mxGeometry>
                </mxCell>
                <mxCell id="166" value="SQL" style="edgeLabel;html=1;align=center;verticalAlign=middle;resizable=0;points=[];fontSize=7;" parent="165" vertex="1" connectable="0">
                    <mxGeometry relative="1" as="geometry">
                        <mxPoint as="offset"/>
                    </mxGeometry>
                </mxCell>
                <mxCell id="167" value="" style="edgeStyle=none;exitX=0.946;exitY=0.464;exitDx=0;exitDy=0;startArrow=classic;startFill=1;exitPerimeter=0;strokeColor=#000000;html=1;entryX=-0.038;entryY=0.69;entryDx=0;entryDy=0;entryPerimeter=0;" parent="1" source="159" target="32" edge="1">
                    <mxGeometry relative="1" as="geometry">
                        <mxPoint x="351.7006200000001" y="266.30556" as="sourcePoint"/>
                        <mxPoint x="409.42302301635914" y="265.72048953043475" as="targetPoint"/>
                    </mxGeometry>
                </mxCell>
                <mxCell id="168" value="SQL" style="edgeLabel;html=1;align=center;verticalAlign=middle;resizable=0;points=[];fontSize=7;" parent="167" vertex="1" connectable="0">
                    <mxGeometry relative="1" as="geometry">
                        <mxPoint as="offset"/>
                    </mxGeometry>
                </mxCell>
                <mxCell id="169" value="&lt;font style=&quot;font-size: 7px;&quot; color=&quot;#ffffff&quot;&gt;Internet&lt;/font&gt;" style="text;strokeColor=none;align=center;fillColor=none;html=1;verticalAlign=middle;whiteSpace=wrap;rounded=0;fontSize=7;" parent="1" vertex="1">
                    <mxGeometry x="147.48" y="275.38" width="32.68" height="14.74" as="geometry"/>
                </mxCell>
                <mxCell id="170" value="&lt;p style=&quot;line-height: 120%; font-size: 10px;&quot;&gt;&lt;font color=&quot;#ffffff&quot; style=&quot;font-size: 10px;&quot;&gt;VM-3 - server MediaWiki-2&lt;/font&gt;&lt;/p&gt;" style="text;strokeColor=none;align=center;fillColor=none;html=1;verticalAlign=middle;whiteSpace=wrap;rounded=0;fontSize=10;" parent="1" vertex="1">
                    <mxGeometry x="380.78" y="270" width="70.5" height="20" as="geometry"/>
                </mxCell>
                <mxCell id="171" value="&lt;p style=&quot;line-height: 120%; font-size: 10px;&quot;&gt;&lt;font color=&quot;#ffffff&quot; style=&quot;font-size: 10px;&quot;&gt;VM-3 - server MediaWiki-1&lt;/font&gt;&lt;/p&gt;" style="text;strokeColor=none;align=center;fillColor=none;html=1;verticalAlign=middle;whiteSpace=wrap;rounded=0;fontSize=10;" parent="1" vertex="1">
                    <mxGeometry x="380.78" y="138" width="70.5" height="20" as="geometry"/>
                </mxCell>
                <mxCell id="34" value="&lt;font color=&quot;#ffffff&quot; style=&quot;font-size: 10px;&quot;&gt;VM-5 - Primary PostgreSQL&lt;br&gt;read/write&lt;br&gt;&lt;/font&gt;" style="text;strokeColor=none;align=center;fillColor=none;html=1;verticalAlign=middle;whiteSpace=wrap;rounded=0;fontSize=10;" parent="1" vertex="1">
                    <mxGeometry x="537.6800000000001" y="98" width="78.41" height="40" as="geometry"/>
                </mxCell>
                <mxCell id="173" value="" style="sketch=0;html=1;aspect=fixed;strokeColor=none;shadow=0;align=center;verticalAlign=top;fillColor=#3B8DF1;shape=mxgraph.gcp2.cloud_server" vertex="1" parent="1">
                    <mxGeometry x="239.99999999999997" y="163.54000000000002" width="48.93" height="43.54" as="geometry"/>
                </mxCell>
                <mxCell id="174" value="" style="sketch=0;html=1;aspect=fixed;strokeColor=none;shadow=0;align=center;verticalAlign=top;fillColor=#3B8DF1;shape=mxgraph.gcp2.cloud_server" vertex="1" parent="1">
                    <mxGeometry x="239.99999999999997" y="300" width="48.93" height="43.54" as="geometry"/>
                </mxCell>
                <mxCell id="175" value="&lt;font style=&quot;font-size: 10px;&quot; color=&quot;#ffffff&quot;&gt;VM-2 - Nginx proxy, &lt;br&gt;Zabbix, Terraform,&lt;br&gt;Ansible,&amp;nbsp;&lt;/font&gt;&lt;font color=&quot;#ffffff&quot;&gt;Keepalived, &lt;br&gt;ZooKeeper, HAProxy&lt;/font&gt;" style="text;strokeColor=none;align=center;fillColor=none;html=1;verticalAlign=middle;whiteSpace=wrap;rounded=0;fontSize=10;glass=0;shadow=0;strokeWidth=1;" vertex="1" parent="1">
                    <mxGeometry x="213.97" y="350" width="101" height="47.23" as="geometry"/>
                </mxCell>
                <mxCell id="176" style="edgeStyle=none;html=1;entryX=0.03;entryY=0.526;entryDx=0;entryDy=0;entryPerimeter=0;startArrow=classic;startFill=1;strokeColor=#000000;exitX=1;exitY=0.75;exitDx=0;exitDy=0;" edge="1" parent="1" source="9" target="174">
                    <mxGeometry relative="1" as="geometry">
                        <mxPoint x="265.31373999999994" y="206.6483599999999" as="targetPoint"/>
                        <mxPoint x="189.54840866141353" y="257.0928809850752" as="sourcePoint"/>
                    </mxGeometry>
                </mxCell>
                <mxCell id="177" value="HTTP" style="edgeLabel;html=1;align=center;verticalAlign=middle;resizable=0;points=[];fontSize=7;" vertex="1" connectable="0" parent="176">
                    <mxGeometry x="0.212" relative="1" as="geometry">
                        <mxPoint x="-5" y="-1" as="offset"/>
                    </mxGeometry>
                </mxCell>
                <mxCell id="179" style="edgeStyle=none;html=1;exitX=0.886;exitY=0.34;exitDx=0;exitDy=0;entryX=0.025;entryY=0.418;entryDx=0;entryDy=0;entryPerimeter=0;startArrow=classic;startFill=1;exitPerimeter=0;strokeColor=#000000;" edge="1" parent="1" source="173" target="20">
                    <mxGeometry relative="1" as="geometry">
                        <mxPoint x="300.00510999999995" y="296.67478000000006" as="sourcePoint"/>
                        <mxPoint x="400.00424" y="171.87128000000007" as="targetPoint"/>
                    </mxGeometry>
                </mxCell>
                <mxCell id="180" value="HTTP" style="edgeLabel;align=center;verticalAlign=middle;resizable=0;points=[];fontSize=7;" vertex="1" connectable="0" parent="179">
                    <mxGeometry relative="1" as="geometry">
                        <mxPoint as="offset"/>
                    </mxGeometry>
                </mxCell>
                <mxCell id="181" style="edgeStyle=none;html=1;exitX=0.966;exitY=0.73;exitDx=0;exitDy=0;entryX=0.139;entryY=0.005;entryDx=0;entryDy=0;entryPerimeter=0;startArrow=classic;startFill=1;exitPerimeter=0;strokeColor=#000000;" edge="1" parent="1" source="173" target="155">
                    <mxGeometry relative="1" as="geometry">
                        <mxPoint x="302.80412" y="155.41315999999995" as="sourcePoint"/>
                        <mxPoint x="402.79324999999994" y="158.19971999999996" as="targetPoint"/>
                    </mxGeometry>
                </mxCell>
                <mxCell id="182" value="HTTP" style="edgeLabel;align=center;verticalAlign=middle;resizable=0;points=[];fontSize=7;" vertex="1" connectable="0" parent="181">
                    <mxGeometry relative="1" as="geometry">
                        <mxPoint as="offset"/>
                    </mxGeometry>
                </mxCell>
                <mxCell id="183" style="edgeStyle=none;html=1;exitX=1.032;exitY=1.001;exitDx=0;exitDy=0;entryX=0.183;entryY=0.029;entryDx=0;entryDy=0;entryPerimeter=0;startArrow=classic;startFill=1;exitPerimeter=0;strokeColor=#000000;" edge="1" parent="1" source="173" target="159">
                    <mxGeometry relative="1" as="geometry">
                        <mxPoint x="306.81637999999987" y="171.78420000000006" as="sourcePoint"/>
                        <mxPoint x="408.38127" y="230.21769999999992" as="targetPoint"/>
                    </mxGeometry>
                </mxCell>
                <mxCell id="184" value="HTTP" style="edgeLabel;align=center;verticalAlign=middle;resizable=0;points=[];fontSize=7;" vertex="1" connectable="0" parent="183">
                    <mxGeometry relative="1" as="geometry">
                        <mxPoint as="offset"/>
                    </mxGeometry>
                </mxCell>
                <mxCell id="185" value="" style="edgeStyle=none;exitX=0.875;exitY=0.217;exitDx=0;exitDy=0;startArrow=classic;startFill=1;exitPerimeter=0;entryX=0.184;entryY=0.019;entryDx=0;entryDy=0;entryPerimeter=0;strokeColor=#000000;html=1;" edge="1" parent="1" source="20" target="94">
                    <mxGeometry relative="1" as="geometry">
                        <mxPoint x="450.60785999999985" y="214.7723800000001" as="sourcePoint"/>
                        <mxPoint x="562.669591962446" y="153.78120514782597" as="targetPoint"/>
                    </mxGeometry>
                </mxCell>
                <mxCell id="186" value="SQL" style="edgeLabel;html=1;align=center;verticalAlign=middle;resizable=0;points=[];fontSize=7;" vertex="1" connectable="0" parent="185">
                    <mxGeometry relative="1" as="geometry">
                        <mxPoint as="offset"/>
                    </mxGeometry>
                </mxCell>
                <mxCell id="187" value="" style="edgeStyle=none;exitX=0.974;exitY=0.514;exitDx=0;exitDy=0;startArrow=classic;startFill=1;exitPerimeter=0;entryX=-0.023;entryY=0.298;entryDx=0;entryDy=0;entryPerimeter=0;strokeColor=#000000;html=1;" edge="1" parent="1" source="155" target="94">
                    <mxGeometry relative="1" as="geometry">
                        <mxPoint x="444.39374999999995" y="182.98817999999994" as="sourcePoint"/>
                        <mxPoint x="572.3916003330078" y="302.2076521043479" as="targetPoint"/>
                    </mxGeometry>
                </mxCell>
                <mxCell id="188" value="SQL" style="edgeLabel;html=1;align=center;verticalAlign=middle;resizable=0;points=[];fontSize=7;" vertex="1" connectable="0" parent="187">
                    <mxGeometry relative="1" as="geometry">
                        <mxPoint as="offset"/>
                    </mxGeometry>
                </mxCell>
                <mxCell id="189" value="" style="edgeStyle=none;exitX=0.979;exitY=0.591;exitDx=0;exitDy=0;startArrow=classic;startFill=1;exitPerimeter=0;entryX=-0.011;entryY=0.51;entryDx=0;entryDy=0;entryPerimeter=0;strokeColor=#000000;html=1;" edge="1" parent="1" source="159" target="94">
                    <mxGeometry relative="1" as="geometry">
                        <mxPoint x="449.23782000000006" y="252.37956000000003" as="sourcePoint"/>
                        <mxPoint x="562.8512633730078" y="319.353701426087" as="targetPoint"/>
                    </mxGeometry>
                </mxCell>
                <mxCell id="190" value="SQL" style="edgeLabel;html=1;align=center;verticalAlign=middle;resizable=0;points=[];fontSize=7;" vertex="1" connectable="0" parent="189">
                    <mxGeometry relative="1" as="geometry">
                        <mxPoint as="offset"/>
                    </mxGeometry>
                </mxCell>
                <mxCell id="191" style="edgeStyle=none;html=1;entryX=0.478;entryY=1.067;entryDx=0;entryDy=0;entryPerimeter=0;startArrow=classic;startFill=1;strokeColor=#000000;exitX=0.478;exitY=-0.049;exitDx=0;exitDy=0;exitPerimeter=0;" edge="1" parent="1" source="174" target="173">
                    <mxGeometry relative="1" as="geometry">
                        <mxPoint x="250.44037000000003" y="205.54189999999994" as="targetPoint"/>
                        <mxPoint x="188.45603192463966" y="255.60515999265476" as="sourcePoint"/>
                    </mxGeometry>
                </mxCell>
            </root>
        </mxGraphModel>
    </diagram>
</mxfile>